# xmcd
#
# Track frame offsets:
#	150
#	19047
#	39981
#	59362
#	87010
#	111967
#	133136
#	150589
#	168361
#	186290
#	198390
#	211532
#
# Disc length: 3001 seconds
#
# Revision: 0
# Processed by: cddbd v1.5.1PL0 Copyright (c) Steve Scherf et al.
# Submitted via: audiograbber 1.82.01
#
DISCID=970bb70c
DTITLE=Steve Johnson - Blues Toons
DYEAR=2004
DGENRE=Blues
TTITLE0=I won't be there
TTITLE1=Badside
TTITLE2=Sex machine
TTITLE3=Tell mama
TTITLE4=Blue Lincoln
TTITLE5=East west
TTITLE6=Bad day
TTITLE7=Endless blues
TTITLE8=Out the door
TTITLE9=Flathead blues
TTITLE10=Rockin' Robn
TTITLE11=Hardluck Blues
EXTD=www.dixiefrog.com
EXTT0=
EXTT1=
EXTT2=
EXTT3=
EXTT4=
EXTT5=
EXTT6=
EXTT7=
EXTT8=
EXTT9=
EXTT10=
EXTT11=
PLAYORDER=
